# Blender v2.79 (sub 0) OBJ File: 'powerup.blend'
# www.blender.org
mtllib powerup.mtl
o Plane
v -0.433282 0.000000 -0.261350
v 0.421409 0.000000 -0.258172
v -0.668815 0.000000 -0.997599
v 0.659065 0.000000 -0.997241
v 0.000000 0.000000 -1.482737
v -0.426591 0.000000 -0.669289
v -0.258167 0.000000 -1.135063
v 0.253601 0.000000 -1.136911
v 0.413907 0.000000 -0.668330
v -0.005423 0.000000 -0.397794
v 0.000000 0.237834 -0.841092
v 0.000000 -0.237834 -0.841092
vn 0.1787 0.8360 -0.5189
vn 0.3846 0.8775 0.2866
vn 0.4283 0.8473 -0.3141
vn -0.4239 0.8492 -0.3148
vn -0.1747 0.8349 -0.5220
vn -0.3791 0.8821 0.2797
vn -0.4894 0.8720 -0.0080
vn 0.1495 0.8705 0.4689
vn -0.1524 0.8717 0.4658
vn 0.5011 0.8654 -0.0092
vn 0.4283 -0.8473 -0.3141
vn -0.4239 -0.8492 -0.3148
vn -0.1747 -0.8349 -0.5220
vn -0.3791 -0.8821 0.2797
vn -0.4894 -0.8720 -0.0080
vn 0.1495 -0.8705 0.4689
vn -0.1524 -0.8717 0.4658
vn 0.5011 -0.8654 -0.0092
vn 0.3846 -0.8775 0.2866
vn 0.1787 -0.8360 -0.5189
usemtl None
s off
f 11//1 4//1 8//1
f 4//2 11//2 9//2
f 5//3 11//3 8//3
f 7//4 11//4 5//4
f 3//5 11//5 7//5
f 6//6 11//6 3//6
f 1//7 11//7 6//7
f 10//8 11//8 1//8
f 2//9 11//9 10//9
f 11//10 2//10 9//10
f 12//11 5//11 8//11
f 5//12 12//12 7//12
f 3//13 7//13 12//13
f 6//14 3//14 12//14
f 1//15 6//15 12//15
f 10//16 1//16 12//16
f 2//17 10//17 12//17
f 2//18 12//18 9//18
f 4//19 9//19 12//19
f 8//20 4//20 12//20
